<svg width="1920" height="301" viewBox="0 0 1920 301" fill="none" xmlns="http://www.w3.org/2000/svg">
<g clip-path="url(#clip0_709_10039)">
<path d="M1795.27 301.426C1767.4 301.426 1743.26 295.194 1722.83 282.731C1702.58 270.267 1687 252.871 1676.09 230.54C1665.19 208.037 1659.73 181.985 1659.73 152.384C1659.73 122.611 1665.1 96.3856 1675.83 73.7092C1686.57 51.0327 1701.63 33.2897 1721.01 20.48C1740.57 7.67043 1763.42 1.26562 1789.56 1.26562C1804.62 1.26562 1819.59 3.77561 1834.48 8.79559C1849.37 13.8156 1862.87 21.9514 1874.99 33.2031C1887.28 44.4548 1897.06 59.3416 1904.33 77.8636C1911.6 96.3857 1915.23 119.149 1915.23 146.153V165.367H1691.41V126.938H1891.09L1870.57 141.479C1870.57 122.091 1867.54 104.868 1861.49 89.8077C1855.43 74.7478 1846.34 62.8903 1834.22 54.2351C1822.28 45.58 1807.39 41.2524 1789.56 41.2524C1771.73 41.2524 1756.41 45.6665 1743.6 54.4948C1730.97 63.1499 1721.27 74.4881 1714.52 88.5095C1707.77 102.531 1704.39 117.591 1704.39 133.689V159.135C1704.39 181.12 1708.2 199.728 1715.82 214.961C1723.44 230.194 1734.08 241.792 1747.76 249.755C1761.43 257.544 1777.27 261.439 1795.27 261.439C1806.87 261.439 1817.43 259.795 1826.95 256.506C1836.47 253.044 1844.69 247.937 1851.62 241.186C1858.54 234.262 1863.82 225.78 1867.46 215.74L1910.56 228.203C1906.06 242.744 1898.44 255.554 1887.71 266.632C1877.15 277.538 1864 286.106 1848.24 292.338C1832.49 298.397 1814.83 301.426 1795.27 301.426Z" fill="black"/>
<path d="M1429.02 46.4451V4.90039H1664.26V46.4451H1569.23V295.194H1524.57V46.4451H1429.02Z" fill="black"/>
<path d="M1326.56 301.426C1299.56 301.426 1276.19 295.021 1256.46 282.212C1236.9 269.229 1221.75 251.486 1211.02 228.982C1200.46 206.479 1195.18 180.773 1195.18 151.865C1195.18 122.265 1200.63 96.2125 1211.54 73.7092C1222.44 51.0327 1237.68 33.2897 1257.24 20.48C1276.97 7.67043 1299.91 1.26562 1326.05 1.26562C1346.47 1.26562 1364.82 5.07389 1381.09 12.6904C1397.54 20.1338 1410.95 30.6931 1421.34 44.3682C1431.9 58.0434 1438.39 73.9688 1440.81 92.1446H1396.15C1393.9 83.3164 1389.83 75.0074 1383.95 67.2178C1378.06 59.4282 1370.27 53.1965 1360.58 48.5227C1351.06 43.6758 1339.72 41.2524 1326.56 41.2524C1309.25 41.2524 1294.11 45.7531 1281.13 54.7544C1268.14 63.7558 1258.02 76.4788 1250.75 92.9236C1243.48 109.195 1239.84 128.323 1239.84 150.307C1239.84 172.637 1243.39 192.198 1250.49 208.989C1257.58 225.607 1267.62 238.503 1280.61 247.678C1293.76 256.852 1309.08 261.439 1326.56 261.439C1344.05 261.439 1359.02 256.939 1371.48 247.937C1383.95 238.763 1392.17 226.299 1396.15 210.547H1440.81C1438.39 227.684 1432.16 243.09 1422.12 256.765C1412.25 270.441 1399.18 281.346 1382.91 289.482C1366.81 297.445 1348.03 301.426 1326.56 301.426Z" fill="black"/>
<path d="M1063.13 301.426C1035.26 301.426 1011.12 295.194 990.69 282.731C970.437 270.267 954.857 252.871 943.952 230.54C933.046 208.037 927.594 181.985 927.594 152.384C927.594 122.611 932.96 96.3856 943.692 73.7092C954.425 51.0327 969.485 33.2897 988.872 20.48C1008.43 7.67043 1031.28 1.26562 1057.42 1.26562C1072.48 1.26562 1087.45 3.77561 1102.34 8.79559C1117.23 13.8156 1130.73 21.9514 1142.85 33.2031C1155.14 44.4548 1164.92 59.3416 1172.19 77.8636C1179.46 96.3857 1183.09 119.149 1183.09 146.153V165.367H959.272V126.938H1158.95L1138.43 141.479C1138.43 122.091 1135.4 104.868 1129.35 89.8077C1123.29 74.7478 1114.2 62.8903 1102.08 54.2351C1090.14 45.58 1075.25 41.2524 1057.42 41.2524C1039.59 41.2524 1024.27 45.6665 1011.46 54.4948C998.826 63.1499 989.132 74.4881 982.381 88.5095C975.63 102.531 972.254 117.591 972.254 133.689V159.135C972.254 181.12 976.063 199.728 983.679 214.961C991.296 230.194 1001.94 241.792 1015.62 249.755C1029.29 257.544 1045.13 261.439 1063.13 261.439C1074.73 261.439 1085.29 259.795 1094.81 256.506C1104.33 253.044 1112.55 247.937 1119.48 241.186C1126.4 234.262 1131.68 225.78 1135.32 215.74L1178.42 228.203C1173.92 242.744 1166.3 255.554 1155.57 266.632C1145.01 277.538 1131.86 286.106 1116.1 292.338C1100.35 298.397 1082.69 301.426 1063.13 301.426Z" fill="black"/>
<path d="M742.053 234.954L843.318 4.90039H885.382L760.229 295.194H723.877L600.801 4.90039H642.346L742.053 234.954ZM627.805 4.90039V295.194H583.664V4.90039H627.805ZM856.301 295.194V4.90039H900.442V295.194H856.301Z" fill="black"/>
<path d="M166.805 295.194V4.90039H285.207C316.366 5.07349 341.119 12.2573 359.468 26.4517C377.99 40.473 387.165 59.0816 386.992 82.2774C387.165 99.9339 381.972 113.522 371.412 123.043C361.026 132.564 347.697 139.055 331.426 142.517C341.985 144.075 352.284 147.883 362.324 153.942C372.537 160.001 381.02 168.309 387.771 178.869C394.522 189.255 397.897 202.065 397.897 217.298C397.897 232.184 394.089 245.513 386.472 257.284C378.856 269.055 368.037 278.316 354.015 285.067C339.994 291.818 323.117 295.194 303.383 295.194H166.805ZM208.869 254.169H303.383C318.616 254.342 330.56 250.793 339.215 243.523C348.043 236.252 352.371 226.299 352.198 213.662C352.371 198.602 348.043 186.831 339.215 178.349C330.56 169.694 318.616 165.367 303.383 165.367H208.869V254.169ZM208.869 126.938H285.207C303.037 126.765 317.058 123.043 327.271 115.773C337.484 108.329 342.504 98.2028 342.331 85.3932C342.504 73.1029 337.484 63.4957 327.271 56.5716C317.058 49.4744 303.037 45.9258 285.207 45.9258H208.869V126.938Z" fill="black"/>
<path d="M556.908 155.888C556.467 228.328 528.026 304.35 472.427 359.571L463.322 368.614L434.934 340.226L444.104 331.121C491.997 283.574 516.623 217.171 516.623 154.178C516.623 91.7041 492.397 26.1756 445.191 -21.6719L444.071 -22.7988L434.967 -31.9033L463.322 -60.2598L472.427 -51.2158C528.464 4.43986 556.913 81.2253 556.913 154.178L556.908 155.888Z" fill="black"/>
<path d="M1.01367 155.888C1.45459 228.328 29.8959 304.35 85.4951 359.571L94.5996 368.614L122.988 340.226L113.817 331.121C65.9252 283.574 41.2989 217.171 41.2988 154.178C41.2988 91.7041 65.5246 26.1756 112.73 -21.6719L113.851 -22.7988L122.955 -31.9033L94.5996 -60.2598L85.4951 -51.2158C29.4582 4.43986 1.00879 81.2253 1.00879 154.178L1.01367 155.888Z" fill="black"/>
</g>
<defs>
<clipPath id="clip0_709_10039">
<rect width="1920" height="301" fill="white" transform="translate(-0.179688)"/>
</clipPath>
</defs>
</svg>
